<?xml version="1.0" encoding="iso-8859-1"?>
<!-- Generator: Adobe Illustrator 19.0.0, SVG Export Plug-In . SVG Version: 6.00 Build 0)  -->
<svg version="1.1" id="Capa_1" xmlns="http://www.w3.org/2000/svg" xmlns:xlink="http://www.w3.org/1999/xlink" x="0px" y="0px"
	 viewBox="0 0 455.431 455.431" style="enable-background:new 0 0 455.431 455.431;" xml:space="preserve">
<path style="fill:#5CA4DA;" d="M405.493,412.764c-69.689,56.889-287.289,56.889-355.556,0c-69.689-56.889-62.578-300.089,0-364.089
	s292.978-64,355.556,0S475.182,355.876,405.493,412.764z"/>
<path style="fill:#6DAFE0;" d="M229.138,313.209c-62.578,49.778-132.267,75.378-197.689,76.8
	c-48.356-82.489-38.4-283.022,18.489-341.333c51.2-52.622,211.911-62.578,304.356-29.867
	C377.049,112.676,330.116,232.142,229.138,313.209z"/>
<path style="fill:#FFFFFF;" d="M227.716,370.098c-38.4,0-66.844-12.8-85.333-38.4s-28.444-59.733-28.444-103.822
	c0-42.667,9.956-78.222,28.444-103.822s46.933-38.4,85.333-38.4s66.844,12.8,85.333,38.4c18.489,25.6,28.444,59.733,28.444,103.822
	c0,42.667-9.956,78.222-28.444,103.822C294.56,357.298,266.116,370.098,227.716,370.098z M187.893,161.031
	c-8.533,17.067-12.8,38.4-12.8,66.844c0,27.022,4.267,49.778,12.8,66.844c8.533,17.067,22.756,25.6,39.822,25.6
	c18.489,0,31.289-8.533,39.822-25.6c8.533-17.067,12.8-38.4,12.8-66.844c0-27.022-4.267-49.778-12.8-66.844
	c-8.533-17.067-22.756-25.6-39.822-25.6C209.227,136.853,196.427,145.387,187.893,161.031z"/>
<g>
</g>
<g>
</g>
<g>
</g>
<g>
</g>
<g>
</g>
<g>
</g>
<g>
</g>
<g>
</g>
<g>
</g>
<g>
</g>
<g>
</g>
<g>
</g>
<g>
</g>
<g>
</g>
<g>
</g>
</svg>
