<?xml version="1.0" encoding="iso-8859-1"?>
<!-- Generator: Adobe Illustrator 19.0.0, SVG Export Plug-In . SVG Version: 6.00 Build 0)  -->
<svg version="1.1" id="Capa_1" xmlns="http://www.w3.org/2000/svg" xmlns:xlink="http://www.w3.org/1999/xlink" x="0px" y="0px"
	 viewBox="0 0 455.431 455.431" style="enable-background:new 0 0 455.431 455.431;" xml:space="preserve">
<path style="fill:#5CA4DA;" d="M405.39,412.764c-69.689,56.889-287.289,56.889-355.556,0s-62.578-300.089,0-364.089
	s292.978-64,355.556,0S475.079,355.876,405.39,412.764z"/>
<path style="fill:#6DAFE0;" d="M229.034,313.209c-62.578,49.778-132.267,75.378-197.689,76.8
	C-17.01,307.52-7.055,106.987,49.834,48.676c51.2-52.622,211.911-62.578,304.356-29.867
	C376.945,112.676,330.012,232.142,229.034,313.209z"/>
<path style="fill:#FFFFFF;" d="M248.945,200.853c7.111-9.956,9.956-19.911,9.956-28.444c0-8.533-2.844-17.067-8.533-22.756
	c-5.689-5.689-14.222-9.956-22.756-9.956c-17.067,0-34.133,12.8-49.778,36.978l-49.778-28.444
	c12.8-19.911,27.022-35.556,42.667-45.511s35.556-15.644,58.311-15.644s44.089,7.111,62.578,22.756
	c18.489,15.644,27.022,35.556,27.022,61.156c0,14.222-4.267,28.444-11.378,41.244c-7.111,12.8-19.911,29.867-39.822,49.778
	l-49.778,51.2h109.511v55.467H132.323v-45.511l81.067-82.489C230.456,223.609,241.834,210.809,248.945,200.853z"/>
<g>
</g>
<g>
</g>
<g>
</g>
<g>
</g>
<g>
</g>
<g>
</g>
<g>
</g>
<g>
</g>
<g>
</g>
<g>
</g>
<g>
</g>
<g>
</g>
<g>
</g>
<g>
</g>
<g>
</g>
</svg>
