<?xml version="1.0" encoding="iso-8859-1"?>
<!-- Generator: Adobe Illustrator 19.0.0, SVG Export Plug-In . SVG Version: 6.00 Build 0)  -->
<svg version="1.1" id="Capa_1" xmlns="http://www.w3.org/2000/svg" xmlns:xlink="http://www.w3.org/1999/xlink" x="0px" y="0px"
	 viewBox="0 0 455.431 455.431" style="enable-background:new 0 0 455.431 455.431;" xml:space="preserve">
<path style="fill:#5CA4DA;" d="M405.493,412.764c-69.689,56.889-287.289,56.889-355.556,0c-69.689-56.889-62.578-300.089,0-364.089
	s292.978-64,355.556,0S475.182,355.876,405.493,412.764z"/>
<path style="fill:#6DAFE0;" d="M229.138,313.209c-62.578,49.778-132.267,75.378-197.689,76.8
	c-48.356-82.489-38.4-283.022,18.489-341.333c51.2-52.622,211.911-62.578,304.356-29.867
	C377.049,112.676,330.116,232.142,229.138,313.209z"/>
<path style="fill:#FFFFFF;" d="M145.227,141.12V88.498h167.822v42.667l-56.889,64c21.333,4.267,38.4,12.8,51.2,28.444
	c11.378,14.222,18.489,31.289,18.489,51.2c0,28.444-9.956,51.2-29.867,68.267s-44.089,24.178-75.378,24.178
	c-29.867,0-61.156-11.378-92.444-32.711l25.6-48.356c25.6,18.489,49.778,27.022,69.689,27.022c12.8,0,22.756-2.844,29.867-8.533
	c8.533-5.689,11.378-14.222,11.378-25.6s-4.267-19.911-14.222-27.022c-8.533-7.111-21.333-9.956-38.4-9.956
	c-8.533,0-21.333,2.844-36.978,7.111v-45.511l52.622-62.578L145.227,141.12L145.227,141.12z"/>
<g>
</g>
<g>
</g>
<g>
</g>
<g>
</g>
<g>
</g>
<g>
</g>
<g>
</g>
<g>
</g>
<g>
</g>
<g>
</g>
<g>
</g>
<g>
</g>
<g>
</g>
<g>
</g>
<g>
</g>
</svg>
