<?xml version="1.0" encoding="iso-8859-1"?>
<!-- Generator: Adobe Illustrator 19.0.0, SVG Export Plug-In . SVG Version: 6.00 Build 0)  -->
<svg version="1.1" id="Capa_1" xmlns="http://www.w3.org/2000/svg" xmlns:xlink="http://www.w3.org/1999/xlink" x="0px" y="0px"
	 viewBox="0 0 455.431 455.431" style="enable-background:new 0 0 455.431 455.431;" xml:space="preserve">
<path style="fill:#5CA4DA;" d="M405.493,412.764c-69.689,56.889-287.289,56.889-355.556,0c-69.689-56.889-62.578-300.089,0-364.089
	s292.978-64,355.556,0S475.182,355.876,405.493,412.764z"/>
<path style="fill:#6DAFE0;" d="M229.138,313.209c-62.578,49.778-132.267,75.378-197.689,76.8
	c-48.356-82.489-38.4-283.022,18.489-341.333c51.2-52.622,211.911-62.578,304.356-29.867
	C377.049,112.676,330.116,232.142,229.138,313.209z"/>
<path style="fill:#FFFFFF;" d="M308.782,88.498v54.044H200.693v45.511c8.533-2.844,17.067-2.844,28.444-2.844
	c27.022,0,49.778,8.533,68.267,24.178s28.444,36.978,28.444,65.422c0,27.022-9.956,49.778-29.867,66.844
	s-44.089,27.022-73.956,27.022c-36.978,0-68.267-14.222-93.867-41.244l32.711-45.511c2.844,2.844,5.689,5.689,9.956,8.533
	c4.267,2.844,11.378,8.533,21.333,14.222c9.956,5.689,21.333,8.533,31.289,8.533s19.911-2.844,28.444-9.956
	c8.533-5.689,12.8-15.644,12.8-28.444c0-12.8-4.267-21.333-12.8-28.444c-8.533-7.111-19.911-9.956-34.133-9.956
	c-14.222,0-29.867,5.689-48.356,15.644l-25.6-27.022V88.498H308.782z"/>
<g>
</g>
<g>
</g>
<g>
</g>
<g>
</g>
<g>
</g>
<g>
</g>
<g>
</g>
<g>
</g>
<g>
</g>
<g>
</g>
<g>
</g>
<g>
</g>
<g>
</g>
<g>
</g>
<g>
</g>
</svg>
