<?xml version="1.0" encoding="iso-8859-1"?>
<!-- Generator: Adobe Illustrator 19.0.0, SVG Export Plug-In . SVG Version: 6.00 Build 0)  -->
<svg version="1.1" id="Capa_1" xmlns="http://www.w3.org/2000/svg" xmlns:xlink="http://www.w3.org/1999/xlink" x="0px" y="0px"
	 viewBox="0 0 455.431 455.431" style="enable-background:new 0 0 455.431 455.431;" xml:space="preserve">
<path style="fill:#5CA4DA;" d="M405.39,412.764c-69.689,56.889-287.289,56.889-355.556,0s-62.578-300.089,0-364.089
	s292.978-64,355.556,0S475.079,355.876,405.39,412.764z"/>
<path style="fill:#6DAFE0;" d="M229.034,313.209c-62.578,49.778-132.267,75.378-197.689,76.8
	C-17.01,307.52-7.055,106.987,49.834,48.676c51.2-52.622,211.911-62.578,304.356-29.867
	C376.945,112.676,330.012,232.142,229.034,313.209z"/>
<path style="fill:#FFFFFF;" d="M241.834,138.276c-17.067,0-29.867,5.689-39.822,17.067c-9.956,11.378-15.644,27.022-17.067,46.933
	c17.067-11.378,35.556-17.067,54.044-17.067c25.6,0,46.933,8.533,64,25.6s25.6,39.822,25.6,66.844
	c0,28.444-9.956,49.778-27.022,66.844c-17.067,17.067-41.244,25.6-69.689,25.6c-19.911,0-36.978-4.267-51.2-11.378
	c-14.222-7.111-25.6-18.489-32.711-31.289c-15.644-25.6-24.178-58.311-24.178-98.133c0-25.6,2.844-46.933,9.956-66.844
	c5.689-18.489,14.222-34.133,25.6-45.511c21.333-19.911,46.933-31.289,78.222-31.289c12.8,0,25.6,1.422,36.978,5.689
	c11.378,4.267,21.333,7.111,27.022,11.378c5.689,4.267,12.8,8.533,21.333,15.644l-28.444,42.667
	c-1.422-1.422-4.267-4.267-7.111-5.689c-2.844-2.844-8.533-5.689-18.489-9.956C258.901,141.12,250.367,138.276,241.834,138.276z
	 M234.723,237.831c-12.8,0-22.756,4.267-31.289,11.378s-12.8,17.067-12.8,28.444c0,11.378,4.267,21.333,11.378,29.867
	c8.533,8.533,17.067,12.8,29.867,12.8c11.378,0,21.333-4.267,29.867-11.378c8.533-7.111,11.378-17.067,11.378-28.444
	c0-11.378-2.844-21.333-9.956-29.867C256.056,242.098,246.101,237.831,234.723,237.831z"/>
<g>
</g>
<g>
</g>
<g>
</g>
<g>
</g>
<g>
</g>
<g>
</g>
<g>
</g>
<g>
</g>
<g>
</g>
<g>
</g>
<g>
</g>
<g>
</g>
<g>
</g>
<g>
</g>
<g>
</g>
</svg>
