<?xml version="1.0" encoding="iso-8859-1"?>
<!-- Generator: Adobe Illustrator 19.0.0, SVG Export Plug-In . SVG Version: 6.00 Build 0)  -->
<svg version="1.1" id="Capa_1" xmlns="http://www.w3.org/2000/svg" xmlns:xlink="http://www.w3.org/1999/xlink" x="0px" y="0px"
	 viewBox="0 0 455.431 455.431" style="enable-background:new 0 0 455.431 455.431;" xml:space="preserve">
<path style="fill:#5CA4DA;" d="M405.493,412.764c-69.689,56.889-287.289,56.889-355.556,0c-69.689-56.889-62.578-300.089,0-364.089
	s292.978-64,355.556,0S475.182,355.876,405.493,412.764z"/>
<path style="fill:#6DAFE0;" d="M229.138,313.209c-62.578,49.778-132.267,75.378-197.689,76.8
	c-48.356-82.489-38.4-283.022,18.489-341.333c51.2-52.622,211.911-62.578,304.356-29.867
	C377.049,112.676,330.116,232.142,229.138,313.209z"/>
<path style="fill:#FFFFFF;" d="M159.449,106.987c18.489-14.222,41.244-21.333,68.267-21.333s49.778,7.111,68.267,21.333
	c18.489,14.222,27.022,32.711,27.022,52.622s-8.533,39.822-24.178,55.467c22.756,17.067,34.133,41.244,34.133,69.689
	c0,24.178-9.956,44.089-28.444,61.156c-19.911,15.644-45.511,24.178-76.8,24.178s-56.889-8.533-75.378-24.178
	c-19.911-17.067-28.444-36.978-28.444-61.156c0-28.444,11.378-51.2,34.133-69.689c-17.067-15.644-24.178-34.133-24.178-54.044
	S140.96,121.209,159.449,106.987z M197.849,310.364c8.533,5.689,18.489,9.956,29.867,9.956c11.378,0,21.333-2.844,29.867-9.956
	c8.533-5.689,14.222-15.644,14.222-27.022s-4.267-21.333-12.8-27.022c-8.533-5.689-18.489-9.956-29.867-9.956
	c-11.378,0-21.333,2.844-29.867,9.956c-8.533,5.689-12.8,15.644-12.8,27.022C183.627,294.72,189.316,303.253,197.849,310.364z
	 M202.116,189.476c7.111,5.689,15.644,9.956,25.6,9.956c9.956,0,18.489-2.844,25.6-9.956c7.111-5.689,11.378-14.222,11.378-22.756
	c0-9.956-4.267-17.067-11.378-22.756c-7.111-5.689-15.644-9.956-27.022-9.956c-9.956,0-18.489,2.844-27.022,9.956
	c-7.111,5.689-11.378,14.222-11.378,22.756C190.738,175.253,193.582,183.787,202.116,189.476z"/>
<g>
</g>
<g>
</g>
<g>
</g>
<g>
</g>
<g>
</g>
<g>
</g>
<g>
</g>
<g>
</g>
<g>
</g>
<g>
</g>
<g>
</g>
<g>
</g>
<g>
</g>
<g>
</g>
<g>
</g>
</svg>
