<?xml version="1.0" encoding="iso-8859-1"?>
<!-- Generator: Adobe Illustrator 19.0.0, SVG Export Plug-In . SVG Version: 6.00 Build 0)  -->
<svg version="1.1" id="Capa_1" xmlns="http://www.w3.org/2000/svg" xmlns:xlink="http://www.w3.org/1999/xlink" x="0px" y="0px"
	 viewBox="0 0 455.431 455.431" style="enable-background:new 0 0 455.431 455.431;" xml:space="preserve">
<path style="fill:#5CA4DA;" d="M405.493,412.764c-69.689,56.889-287.289,56.889-355.556,0c-69.689-56.889-62.578-300.089,0-364.089
	s292.978-64,355.556,0S475.182,355.876,405.493,412.764z"/>
<path style="fill:#6DAFE0;" d="M229.138,313.209c-62.578,49.778-132.267,75.378-197.689,76.8
	c-48.356-82.489-38.4-283.022,18.489-341.333c51.2-52.622,211.911-62.578,304.356-29.867
	C377.049,112.676,330.116,232.142,229.138,313.209z"/>
<path style="fill:#FFFFFF;" d="M213.493,317.476c17.067,0,29.867-5.689,39.822-17.067c9.956-11.378,15.644-27.022,17.067-46.933
	c-17.067,11.378-35.556,17.067-54.044,17.067c-25.6,0-46.933-8.533-64-25.6s-25.6-39.822-25.6-66.844
	c0-28.444,9.956-49.778,27.022-66.844s41.244-25.6,69.689-25.6c19.911,0,36.978,4.267,51.2,11.378
	c14.222,7.111,25.6,18.489,34.133,31.289c15.644,25.6,22.756,58.311,22.756,98.133c0,25.6-2.844,46.933-9.956,66.844
	c-5.689,18.489-14.222,34.133-25.6,45.511c-21.333,21.333-46.933,32.711-78.222,32.711c-12.8,0-25.6-1.422-36.978-5.689
	c-11.378-4.267-21.333-7.111-27.022-11.378s-12.8-8.533-21.333-14.222l31.289-42.667c1.422,1.422,4.267,4.267,7.111,5.689
	c2.844,2.844,8.533,5.689,17.067,9.956C197.849,314.631,204.96,317.476,213.493,317.476z M222.027,217.92
	c12.8,0,22.756-2.844,29.867-9.956c8.533-7.111,12.8-17.067,12.8-28.444c0-11.378-4.267-21.333-11.378-29.867
	c-8.533-8.533-17.067-12.8-29.867-12.8c-11.378,0-21.333,4.267-28.444,11.378c-7.111,7.111-11.378,17.067-11.378,28.444
	s2.844,21.333,9.956,29.867C199.271,213.653,209.227,217.92,222.027,217.92z"/>
<g>
</g>
<g>
</g>
<g>
</g>
<g>
</g>
<g>
</g>
<g>
</g>
<g>
</g>
<g>
</g>
<g>
</g>
<g>
</g>
<g>
</g>
<g>
</g>
<g>
</g>
<g>
</g>
<g>
</g>
</svg>
